<svg xmlns="http://www.w3.org/2000/svg" viewBox="0 0 640 512" fill="#7f5af0">
  <path d="M414.8 45.5c12.3 6.3 17.3 21.6 11 33.8L227.2 457.8c-6.3 12.3-21.6 17.3-33.8 11s-17.3-21.6-11-33.8L382 56.5c6.3-12.3 21.6-17.3 33.8-11zM159.5 107.9c9.4 9.4 9.4 24.6 0 33.9L50.3 251.1c-3.1 3.1-4.7 7.1-4.7 11.3s1.6 8.3 4.7 11.3l109.2 109.2c9.4 9.4 9.4 24.6 0 33.9s-24.6 9.4-33.9 0L16.4 296.3C5.3 285.2 0 270.2 0 255.1s5.3-30.1 16.4-41.2L125.6 89c9.4-9.4 24.6-9.4 33.9 0zm320.9 0L623.6 213.9c11.1 11.1 16.4 26.2 16.4 41.2s-5.3 30.1-16.4 41.2L480.4 422c-9.4 9.4-24.6 9.4-33.9 0s-9.4-24.6 0-33.9l109.2-109.2c3.1-3.1 4.7-7.1 4.7-11.3s-1.6-8.3-4.7-11.3L446.5 141.8c-9.4-9.4-9.4-24.6 0-33.9s24.6-9.4 33.9 0z" />
</svg>
